<?xml version="1.0" standalone="no"?>
<!DOCTYPE svg PUBLIC "-//W3C//DTD SVG 20010904//EN"
 "http://www.w3.org/TR/2001/REC-SVG-20010904/DTD/svg10.dtd">
<svg version="1.0" xmlns="http://www.w3.org/2000/svg"
 width="192.000000pt" height="192.000000pt" viewBox="0 0 192.000000 192.000000"
 preserveAspectRatio="xMidYMid meet">
<metadata>
Created by potrace 1.14, written by Peter Selinger 2001-2017
</metadata>
<g transform="translate(0.000000,192.000000) scale(0.100000,-0.100000)"
fill="#000000" stroke="none">
<path d="M202 1395 c-72 -31 -84 -61 -88 -213 -4 -142 -14 -167 -68 -178 -36
-6 -46 -24 -38 -71 3 -16 12 -23 35 -25 54 -5 68 -38 72 -174 1 -65 7 -130 13
-144 15 -37 52 -67 97 -79 63 -17 71 -15 73 23 2 31 0 34 -31 40 -62 12 -71
32 -77 179 -3 77 -10 141 -18 154 -6 12 -28 27 -47 34 l-35 13 38 21 c53 29
61 54 63 190 1 116 2 120 29 147 16 15 39 28 53 28 20 0 24 5 25 35 1 33 0 35
-31 35 -18 -1 -47 -7 -65 -15z"/>
<path d="M1620 1375 c0 -29 4 -35 21 -35 29 0 56 -17 71 -43 7 -13 13 -70 15
-136 3 -137 12 -165 64 -188 l38 -17 -39 -17 c-21 -9 -43 -27 -49 -38 -6 -11
-13 -76 -14 -143 -2 -71 -8 -132 -15 -145 -12 -22 -42 -37 -82 -42 -5 0 -10
-17 -10 -36 0 -39 8 -42 75 -24 85 23 107 69 110 233 2 125 12 153 60 164 17
3 33 5 38 4 4 -1 7 18 7 42 0 42 -1 44 -35 50 -55 11 -68 40 -70 159 -3 113
-10 161 -32 194 -17 25 -81 53 -123 53 -28 0 -30 -3 -30 -35z"/>
<path d="M454 1221 c-36 -74 -66 -144 -67 -155 -2 -20 4 -21 57 -17 8 1 28 31
46 69 17 37 41 90 54 117 l23 50 20 -45 c48 -106 88 -185 96 -191 8 -6 67 -3
73 3 2 3 -116 256 -134 288 -6 9 -26 15 -56 15 l-48 1 -64 -135z"/>
<path d="M1301 1346 c-9 -11 -141 -285 -141 -292 0 -2 20 -4 45 -4 25 0 45 4
45 9 0 18 95 211 103 208 4 -1 30 -49 56 -107 43 -94 51 -105 79 -111 59 -12
57 0 -18 157 l-71 149 -45 1 c-25 0 -49 -5 -53 -10z"/>
<path d="M730 610 l0 -40 227 2 228 3 2 38 3 37 -230 0 -230 0 0 -40z"/>
</g>
</svg>
